PathFileType	4	(X/Y/Z)	Patient4_TMGait_0pt2_01_left_11.trc.trc
DataRate	CameraRate	NumFrames	NumMarkers	Units	OrigDataRate	OrigDataStartFrame	OrigNumFrames
42.553191489362	42.553191489362	5	33	mm	42.553191489362	71	       141
Frame#	Time	Sacral			L.Shoulder			Chest			R.Shoulder			Neck			R.ASIS			L.ASIS			R.Thigh.Superior			R.Thigh.Lateral			R.Thigh.Inferior			R.Patella			L.Thigh.Superior			L.Thigh.Lateral			L.Thigh.Inferior			L.Patella			L.Shank.Superior			L.Shank.Lateral			L.Shank.Inferior			R.Shank.Superior			R.Shank.Lateral			R.Shank.Inferior			R.Heel			R.Midfoot.Superior			R.Midfoot.Lateral			R.Toe			L.Heel			L.Midfoot.Lateral			L.Midfoot.Superior			L.Toe			L.Elbow			L.Wrist			R.Elbow			R.Wrist			
		X1	Y1	Z1	X2	Y2	Z2	X3	Y3	Z3	X4	Y4	Z4	X5	Y5	Z5	X6	Y6	Z6	X7	Y7	Z7	X8	Y8	Z8	X9	Y9	Z9	X10	Y10	Z10	X11	Y11	Z11	X12	Y12	Z12	X13	Y13	Z13	X14	Y14	Z14	X15	Y15	Z15	X16	Y16	Z16	X17	Y17	Z17	X18	Y18	Z18	X19	Y19	Z19	X20	Y20	Z20	X21	Y21	Z21	X22	Y22	Z22	X23	Y23	Z23	X24	Y24	Z24	X25	Y25	Z25	X26	Y26	Z26	X27	Y27	Z27	X28	Y28	Z28	X29	Y29	Z29	X30	Y30	Z30	X31	Y31	Z31	X32	Y32	Z32	X33	Y33	Z33	

71	26.275000000000	794.708269587923	1017.318758064750	400.448366711855	1053.530314849832	1435.838504456973	281.282792080372	1100.813598499736	1357.023692312742	460.919057365955	977.074867934235	1432.211604033611	608.230591931300	995.618541329155	1494.787129901596	432.862714402594	989.453627318721	944.256438646797	569.894631900840	1037.819873660528	958.408265711937	298.434965833202	1062.737702917167	768.558217013592	545.962995072517	1005.989721037260	651.343990379234	612.864712579648	1095.376130322309	607.881385612804	539.015189128792	1117.898296033847	518.767660084871	559.852170589329	1052.008385092365	736.315880058425	341.900379675029	963.937028249475	625.112409940389	265.563949719963	1020.985884714773	544.718099180775	348.351596962004	1010.990671039414	476.033962404171	357.493134619746	977.134297756511	406.582883613863	344.975441339572	883.331967781345	300.249636430392	286.394564090045	910.984274189978	187.115138121420	365.671870530331	1087.485859918191	429.169393593504	572.739566360880	1012.721687557513	333.758546414968	642.209296174764	1060.826780922193	233.409091584134	593.982820257625	929.626760709342	65.549788929546	575.592547728122	1102.080330630866	115.377977998820	610.336239844604	1015.630634942931	50.852469458817	645.857167201201	1220.897721995105	64.040337324651	632.194241076804	765.537014840631	38.789744125531	398.645766716123	843.302617852491	36.001187325698	321.543992256990	926.899353195376	95.864463424678	353.367999474658	1055.451424277831	40.794142366681	329.185812555985	1172.996233492288	1131.800718705544	125.965977610738	1414.959994686112	1069.280203632361	195.975391101016	805.268798516357	1116.802630456446	668.698377807598	779.745431198273	856.503819447920	669.348296309974	
72	26.298500000000	796.027407344887	1016.932460342788	402.661826946096	1056.472236703957	1434.788908279550	285.559947032739	1101.546468363715	1356.667525011739	466.046123874166	976.183474639662	1432.718765479182	611.588821938140	996.909001945145	1494.372738122044	436.317680306510	988.795847611684	943.736911264381	574.632177789302	1040.075809278870	957.739834260582	303.708143074882	1060.279421523094	766.284887123745	551.670807478161	1000.910650346471	649.585387380132	617.184976049008	1090.323269467801	606.069879327430	543.683053688412	1111.930551123370	519.748014349144	563.170784422506	1051.579950153698	734.970814753895	346.324302866269	962.927353962297	625.036804401661	268.137962660509	1018.150698071683	543.630125918193	350.942746377100	1007.148070674076	475.236957999308	359.588205129987	973.334929647005	406.186211764413	346.551864385842	879.346480216616	300.395575211744	287.297587210092	906.546444463879	186.903781763852	366.244244395856	1087.580233606962	429.073441318092	576.378772947994	1019.586907812872	328.187459692837	647.237862391935	1073.388183883483	230.258102213862	597.812035902827	950.388016810434	55.119744643931	581.260882194698	1122.693001985595	111.850666685188	613.081692661502	1038.745333048354	43.130884437388	649.735747688112	1244.713343484857	64.848518632352	632.111010442904	760.787319360934	38.683543729108	398.596769506870	838.538294633518	35.906662164868	321.526033816158	922.125865938876	95.821246535030	353.451335072161	1050.713852429691	40.809414212371	329.212283729282	1181.550016607675	1132.329075739143	133.261364122554	1425.724134904512	1084.289397913370	205.588900304120	803.271947948099	1118.010307481162	669.874042699482	780.381188986457	857.456798378905	671.107920651337	
73	26.322000000000	797.738733134641	1016.092940153696	405.703913744929	1058.917291590952	1433.573057374704	290.241545202707	1102.398141956895	1356.130277175712	471.397301427314	975.763595988947	1432.794302721510	615.540824715396	998.093846753057	1493.700237723866	440.306097336491	989.035502454189	942.807945829647	579.490330296419	1042.488030785719	956.928332245713	309.067312437280	1058.987850411508	763.651386511854	557.126918925393	997.085098389117	647.283087054632	621.110402453083	1086.611702985567	603.828041924482	547.924491789340	1106.810436770109	519.669807405222	565.940240214586	1051.747502027381	733.467474399176	350.552604577886	962.392580382663	624.727810873743	270.961229417704	1016.112073483921	542.349764171625	353.597276159310	1004.199467903204	474.201706315423	361.800155190026	970.221714864555	405.559289757122	348.288664356141	875.796237177154	300.549950049126	288.332423695165	902.336929544411	186.610227258636	366.859525357359	1087.349069412329	428.294555823686	579.301718633004	1024.848835412691	323.443216805292	651.233196138582	1082.615919030211	227.636443196668	600.495463714213	965.673661721592	48.196121492489	585.462395032480	1137.940198777097	108.935574294869	614.639825079272	1055.629021723970	37.991644400387	652.402032390913	1261.633842618716	64.372237297179	631.242324752172	756.044280284667	38.620268307070	398.522479367329	833.785938759907	35.826623220676	321.508644224025	917.376588323035	95.789203162917	353.516698741129	1045.981216331724	40.811563776270	329.227464020478	1189.035552184306	1132.180997754930	141.337536014437	1434.551500151453	1097.655151315592	215.755654035930	803.286742709874	1117.957108814486	672.249195798714	784.071881075406	857.044345457658	674.353624721069	
74	26.345500000000	799.807448530479	1014.973802317849	409.585800159130	1060.937528809636	1432.326143794944	295.292563551875	1103.411890456410	1355.529520482955	476.956183791996	975.834756467089	1432.579571298584	620.060785696200	999.216075171679	1492.898870890968	444.797890691489	990.155006430515	941.657287955173	584.514962034715	1045.041199759354	956.079828102990	314.516448150111	1058.916161139690	760.915534622081	562.245299674157	994.693865859043	644.693610279651	624.622900397384	1084.348134212199	601.393708654391	551.656788443610	1102.822542954582	518.721589218206	568.151370326893	1052.389387736876	731.866177047645	354.617187763031	962.158487864046	624.287536874974	274.039001567380	1014.680440619297	540.955266025527	356.318914166827	1001.941746463250	473.016656441621	364.129269906217	967.635928435126	404.798090801874	350.173233492310	872.557895195134	300.770355315441	289.496324639080	898.301021748933	186.293979083294	367.505436879498	1086.951320247511	426.947168478268	581.494935778382	1028.492389227297	319.519836791083	654.132961811369	1088.540646357258	225.411485181133	601.997188408546	975.397265393159	44.196670717662	588.124817558155	1147.810000257404	106.572512417390	614.999346003096	1066.294418377674	35.095565304206	653.885579178477	1271.963915509225	62.804784350656	629.769970932000	751.310603374224	38.626663173735	398.415870373778	829.051312303700	35.780273493822	321.488328824716	912.661274202592	95.781740836292	353.553767500004	1041.252246787316	40.800505272881	329.230951462306	1195.452445219450	1131.514130250683	150.011170703955	1441.564747608644	1109.315324369052	226.342530142042	805.091646106679	1116.891603102823	675.843509114624	790.321523339319	855.585295397815	679.055344134423	
75	26.369000000000	802.178934195800	1013.748985780752	414.283979009506	1062.626201538972	1431.159674886038	300.654884564197	1104.624266449933	1354.964833151248	482.688112812010	976.403099772689	1432.214091971837	625.086617097446	1000.328106196454	1492.086330748856	449.730048188435	992.082142589081	940.463519480604	589.748964245303	1047.700901468320	955.279215551981	320.066729468540	1059.976723827824	758.277195188870	567.001774418620	993.740217112035	642.062787733653	627.799207217652	1083.443256093944	598.961001014155	554.892700456722	1100.068131575633	517.126735019756	569.896908787956	1053.351725456360	730.232376083404	358.584032329881	962.054259531207	623.819132001348	277.369707462912	1013.652262624965	539.531525570320	359.116434624729	1000.155312316093	471.776459348873	366.573645907022	965.409351233519	404.001130221428	352.190714450257	869.505816066860	301.110659602839	290.786366588172	894.386760733042	186.013827535243	368.171049891864	1086.494952864809	425.174212367159	583.064842869628	1030.620545514747	316.336920105554	656.035105048762	1091.456787150731	223.448142465188	602.450006288712	979.996780901468	42.383541388852	589.373541798576	1152.733091141085	104.679754996538	614.311322255379	1071.314621654097	33.954614077939	654.355970354339	1276.515774589910	60.480010501278	627.938662548739	746.592341617914	38.734233076532	398.272395232720	824.342469376282	35.791783631791	321.461892823715	907.992011794330	95.811638992481	353.557570541091	1036.526739615339	40.774435502770	329.224217861128	1200.841824906089	1130.482285683752	159.072597781218	1446.934465802214	1119.237528909144	237.201321072084	808.421312004505	1115.099828117966	680.613586401976	798.612951643990	853.434008808764	685.141672847749	
